<?xml version="1.0" encoding="utf-8"?>
<!-- Generator: Adobe Illustrator 27.0.1, SVG Export Plug-In . SVG Version: 6.00 Build 0)  -->
<svg version="1.1" id="Layer_1" xmlns="http://www.w3.org/2000/svg" xmlns:xlink="http://www.w3.org/1999/xlink" x="0px" y="0px"
	 width="70px" height="70px" viewBox="0 0 70 70" style="enable-background:new 0 0 70 70;" xml:space="preserve">
<style type="text/css">
	.st0{fill:#E92D2A;}
	.st1{fill:#D74036;}
	.st2{fill:#FFFFFF;}
	.st3{fill:#FBDBDA;}
</style>
<g>
	<path class="st0" d="M45,52.7c-4.7,0-9.3-1.9-12.7-5.6c-5.9-6.4-5.9-16.5,0-23c6.3-6.9,17-7.4,23.9-1.3l0,0
		c0.4,0.4,0.6,0.8,0.6,1.4c0,0.5-0.2,1.1-0.6,1.5l-10,10l10,9.9c0.4,0.4,0.6,0.9,0.6,1.5c0,0.5-0.2,1-0.6,1.4
		C53,51.3,49,52.7,45,52.7z M45,20.6c-4.1,0-8.2,1.7-11.2,4.9c-5.2,5.7-5.2,14.6,0,20.3c5.5,6.1,15,6.6,21.1,1.2l-10-9.9
		c-0.8-0.8-0.8-2,0-2.8l9.9-9.9C52,21.8,48.5,20.6,45,20.6z"/>
</g>
<g>
	<circle class="st1" cx="44.4" cy="26.6" r="1.8"/>
</g>
<g>
	<path class="st2" d="M31.9,34.6v-23h-13v23l-8.2,16.5c-1.7,3.3,0.8,7.3,4.5,7.3h20.3c3.7,0,6.2-3.9,4.5-7.3L31.9,34.6z"/>
	<path class="st0" d="M35.6,59.4H15.2c-2.1,0-4-1.1-5.1-2.9s-1.2-4-0.3-5.9l8.1-16.3V10.6h14.9v23.8L41,50.7
		c0.9,1.9,0.8,4.1-0.3,5.9C39.6,58.3,37.7,59.4,35.6,59.4z M19.9,12.6v22.3l-8.3,16.7c-0.6,1.3-0.6,2.7,0.2,3.9
		c0.7,1.2,2,1.9,3.4,1.9h20.3c1.4,0,2.7-0.7,3.4-1.9s0.8-2.7,0.2-3.9l-8.3-16.7V12.6H19.9z"/>
</g>
<g>
	<path class="st3" d="M30,41.4h-9.2L15.5,52c-0.2,0.5-0.1,0.9,0.1,1.2c0.2,0.3,0.5,0.6,1,0.6h17.6c0.6,0,0.9-0.3,1-0.6
		c0.2-0.3,0.3-0.7,0.1-1.2L30,41.4z"/>
</g>
<g>
	<path class="st0" d="M33.8,12.6H16.9c-0.6,0-1-0.4-1-1s0.4-1,1-1h16.9c0.6,0,1,0.4,1,1S34.4,12.6,33.8,12.6z"/>
</g>
<g>
	<circle class="st3" cx="24.8" cy="32" r="1.2"/>
</g>
<g>
	<circle class="st2" cx="27.1" cy="41.4" r="1.2"/>
</g>
<g>
	<circle class="st3" cx="53.3" cy="35.7" r="1.8"/>
</g>
<g>
	<circle class="st3" cx="59.2" cy="35.7" r="1.8"/>
</g>
<g>
	<circle class="st2" cx="23.1" cy="45.2" r="1.8"/>
</g>
<g>
	<circle class="st3" cx="27.1" cy="37" r="1.8"/>
</g>
</svg>
