<?xml version="1.0" encoding="utf-8"?>
<!-- Generator: Adobe Illustrator 27.0.1, SVG Export Plug-In . SVG Version: 6.00 Build 0)  -->
<svg version="1.1" id="Layer_1" xmlns="http://www.w3.org/2000/svg" xmlns:xlink="http://www.w3.org/1999/xlink" x="0px" y="0px"
	 width="70px" height="70px" viewBox="0 0 70 70" style="enable-background:new 0 0 70 70;" xml:space="preserve">
<style type="text/css">
	.st0{fill:#E92D2A;}
	.st1{fill:#FBDBDA;}
	.st2{fill:#FFFFFF;}
</style>
<g>
	<path class="st0" d="M52.3,59.7H12.4c-2.8,0-5.1-2.3-5.1-5.1V16.9c0-2.8,2.3-5.1,5.1-5.1h39.9c2.8,0,5.1,2.3,5.1,5.1v37.7
		C57.5,57.4,55.2,59.7,52.3,59.7z M12.4,13.8c-1.7,0-3.1,1.4-3.1,3.1v37.7c0,1.7,1.4,3.1,3.1,3.1h39.9c1.7,0,3.1-1.4,3.1-3.1V16.9
		c0-1.7-1.4-3.1-3.1-3.1H12.4z"/>
</g>
<g>
	<rect x="8.3" y="20.5" class="st0" width="48.2" height="2"/>
</g>
<g>
	<path class="st1" d="M50,54H14.7c-1,0-1.7-0.8-1.7-1.7V25.7h38.8v26.6C51.8,53.2,51,54,50,54z"/>
</g>
<g>
	<path class="st2" d="M53.3,30.4l2.7,5.5c0.2,0.4,0.5,0.6,0.9,0.7l6.1,0.9c1,0.1,1.4,1.3,0.7,2l-4.4,4.3c-0.3,0.3-0.4,0.7-0.3,1.1
		l1,6.1c0.2,1-0.9,1.7-1.7,1.3l-5.4-2.9c-0.3-0.2-0.8-0.2-1.1,0l-5.4,2.9c-0.9,0.5-1.9-0.3-1.7-1.3l1-6.1c0.1-0.4-0.1-0.8-0.3-1.1
		l-4.4-4.3c-0.7-0.7-0.3-1.9,0.7-2l6.1-0.9c0.4-0.1,0.7-0.3,0.9-0.7l2.7-5.5C51.6,29.5,52.8,29.5,53.3,30.4z"/>
	<path class="st0" d="M45.6,53.3c-0.5,0-0.9-0.1-1.3-0.4c-0.7-0.5-1-1.3-0.9-2.1l1-6.1c0-0.1,0-0.1-0.1-0.2l-4.4-4.3
		c-0.6-0.6-0.8-1.5-0.6-2.3c0.3-0.8,0.9-1.4,1.8-1.5l6.1-0.9c0.1,0,0.1,0,0.1-0.1l2.7-5.5c0.4-0.8,1.1-1.2,2-1.2s1.6,0.5,2,1.2v0
		l2.7,5.5c0,0.1,0.1,0.1,0.1,0.1l6.1,0.9c0.8,0.1,1.5,0.7,1.8,1.5c0.3,0.8,0,1.7-0.6,2.3l-4.4,4.3c0,0-0.1,0.1-0.1,0.2l1,6.1
		c0.1,0.8-0.2,1.7-0.9,2.1c-0.7,0.5-1.6,0.6-2.3,0.2l-5.4-2.9c-0.1,0-0.1,0-0.2,0l-5.4,2.9C46.3,53.2,46,53.3,45.6,53.3z M52.2,48.2
		c0.4,0,0.7,0.1,1,0.3l5.4,2.9c0.1,0,0.1,0,0.2,0s0.1-0.1,0.1-0.2l-1-6.1c-0.1-0.7,0.1-1.4,0.6-1.9l4.4-4.3c0.1-0.1,0.1-0.1,0.1-0.2
		c0-0.1-0.1-0.1-0.2-0.1l-6.1-0.9c-0.7-0.1-1.3-0.6-1.7-1.2l-2.7-5.5c-0.1-0.1-0.3-0.1-0.4,0l-2.7,5.5c-0.3,0.6-0.9,1.1-1.7,1.2
		l-6.1,0.9c-0.1,0-0.1,0.1-0.2,0.1s0,0.1,0,0.2l4.4,4.3c0.5,0.5,0.8,1.2,0.6,1.9l-1,6.1c0,0.1,0,0.1,0.1,0.2s0.1,0.1,0.2,0l5.4-2.9
		C51.5,48.3,51.8,48.2,52.2,48.2z"/>
</g>
<g>
	<g>
		<path class="st2" d="M44.7,33.1c-0.3,0-0.6-0.2-0.8-0.4l-1.2-1.8c-0.3-0.5-0.2-1.1,0.3-1.4c0.5-0.3,1.1-0.2,1.4,0.3l1.2,1.8
			c0.3,0.5,0.2,1.1-0.3,1.4C45.1,33,44.9,33.1,44.7,33.1z"/>
	</g>
	<g>
		<path class="st2" d="M38.2,48.2c-0.4,0-0.7-0.2-0.9-0.6c-0.2-0.5,0-1.1,0.5-1.3l2-0.9c0.5-0.2,1.1,0,1.3,0.5s0,1.1-0.5,1.3l-2,0.9
			C38.4,48.2,38.3,48.2,38.2,48.2z"/>
	</g>
</g>
<g>
	<g>
		<path class="st1" d="M60.3,33.1c-0.2,0-0.4-0.1-0.6-0.2c-0.5-0.3-0.6-0.9-0.3-1.4l1.2-1.8c0.3-0.5,0.9-0.6,1.4-0.3
			c0.5,0.3,0.6,0.9,0.3,1.4l-1.2,1.8C61,32.9,60.7,33.1,60.3,33.1z"/>
	</g>
	<g>
		<path class="st1" d="M65.5,47.8c-0.1,0-0.3,0-0.4-0.1l-2-0.9c-0.5-0.2-0.7-0.8-0.5-1.3c0.2-0.5,0.8-0.7,1.3-0.5l2,0.9
			c0.5,0.2,0.7,0.8,0.5,1.3C66.2,47.6,65.9,47.8,65.5,47.8z"/>
	</g>
</g>
<g>
	<circle class="st0" cx="14.1" cy="17.2" r="1.2"/>
</g>
<g>
	<circle class="st0" cx="18.7" cy="17.2" r="1.2"/>
</g>
<g>
	<circle class="st0" cx="23.3" cy="17.2" r="1.2"/>
</g>
</svg>
