<?xml version="1.0" encoding="utf-8"?>
<!-- Generator: Adobe Illustrator 27.0.1, SVG Export Plug-In . SVG Version: 6.00 Build 0)  -->
<svg version="1.1" id="Layer_1" xmlns="http://www.w3.org/2000/svg" xmlns:xlink="http://www.w3.org/1999/xlink" x="0px" y="0px"
	 width="70px" height="70px" viewBox="0 0 70 70" style="enable-background:new 0 0 70 70;" xml:space="preserve">
<style type="text/css">
	.st0{fill:#E92D2A;}
	.st1{fill:#FBDBDA;}
	.st2{fill:#FFFFFF;}
	.st3{fill:none;stroke:#E92D2A;stroke-width:2;stroke-linecap:round;stroke-linejoin:round;stroke-miterlimit:10;}
</style>
<g>
	<g>
		<path class="st0" d="M40.4,61.5H13c-2.8,0-5.1-2.3-5.1-5.1V9.5c0-2.8,2.3-5.1,5.1-5.1h27.3c2.8,0,5.1,2.3,5.1,5.1v46.9
			C45.5,59.2,43.2,61.5,40.4,61.5z M13,6.4c-1.7,0-3.1,1.4-3.1,3.1v46.9c0,1.7,1.4,3.1,3.1,3.1h27.3c1.7,0,3.1-1.4,3.1-3.1V9.5
			c0-1.7-1.4-3.1-3.1-3.1H13z"/>
	</g>
</g>
<g>
	<g>
		<path class="st1" d="M13.6,17.4h26.2V55c0,0.5-0.4,0.9-0.9,0.9H14.4c-0.5,0-0.9-0.4-0.9-0.9V17.4H13.6z"/>
	</g>
</g>
<g>
	<g>
		<path class="st0" d="M31.1,14.6h-8.8c-1.4,0-2.5-1.1-2.5-2.5s1.1-2.5,2.5-2.5h8.8c1.4,0,2.5,1.1,2.5,2.5S32.5,14.6,31.1,14.6z
			 M22.3,11.6c-0.2,0-0.5,0.3-0.5,0.5s0.3,0.5,0.5,0.5h8.8c0.2,0,0.5-0.1,0.5-0.5c0-0.2-0.3-0.5-0.5-0.5H22.3z"/>
	</g>
</g>
<g>
	<g>
		<path class="st2" d="M57.2,42.7L53,38.5c-1.1-1.1-3-1.3-4-0.2c-1.1,1-1.1,2.7-0.1,3.7L47,40.1C45.9,39,44.3,39,43.3,40
			c-0.9,0.8-1.1,2.2-0.5,3.2l-0.3-0.3c-1.1-1.1-2.7-1.1-3.7-0.1c-1.1,1.1-1.2,2.8-0.1,3.8l-5.8-5.8c-1.1-1.1-2.7-1.1-3.7-0.1
			c-1.1,1-1.1,2.7-0.1,3.7l7.2,7.4c-0.4,0.1-0.8,0.3-1.2,0.6c-1.1,1-1.1,2.7-0.1,3.7l4.3,4.3c4.9,5,12.7,5,17.7,0.1
			C61.9,55.9,62.1,47.8,57.2,42.7z"/>
	</g>
</g>
<g>
	<g>
		<g>
			<path class="st0" d="M48.1,65.4C48,65.4,48,65.4,48.1,65.4c-3.7,0-7-1.5-9.6-4.1L34.2,57c-0.7-0.7-1.1-1.7-1.1-2.7
				s0.5-1.9,1.2-2.5c0.1-0.1,0.1-0.1,0.2-0.2l-6.2-6.4c-0.7-0.7-1.1-1.7-1.1-2.7s0.5-1.9,1.2-2.5c1.4-1.4,3.6-1.3,5.1,0.1l3.6,3.6
				c0.2-0.6,0.5-1.1,1-1.6c1-1,2.3-1.3,3.5-0.9c0.1-0.8,0.5-1.4,1.1-2c0.7-0.7,1.6-1,2.6-1c0.8,0,1.5,0.3,2.1,0.8
				c0.2-0.6,0.5-1.1,1-1.5c0.7-0.7,1.7-1,2.7-0.9s2,0.5,2.7,1.2L58,42c5.3,5.4,5.1,14.1-0.4,19.5C55,64,51.6,65.4,48.1,65.4z
				 M30.8,41.1c-0.4,0-0.8,0.2-1.1,0.5c-0.4,0.3-0.5,0.7-0.6,1.1c0,0.4,0.2,0.9,0.5,1.2l7.2,7.4c0.2,0.2,0.3,0.6,0.3,0.9
				c-0.1,0.3-0.3,0.6-0.7,0.7c-0.4,0.1-0.6,0.2-0.8,0.4c-0.4,0.3-0.5,0.7-0.6,1.1c0,0.4,0.2,0.9,0.5,1.2l4.3,4.3
				c2.2,2.2,5,3.5,8.1,3.5c0,0,0,0,0.1,0c3,0,5.9-1.2,8.1-3.4c4.7-4.5,4.8-12,0.3-16.6l-4.2-4.2c-0.3-0.3-0.9-0.6-1.4-0.6
				c-0.3,0-0.8,0-1.2,0.4c-0.4,0.3-0.6,0.7-0.6,1.1c0,0.4,0.2,0.9,0.5,1.2c0.2,0.2,0.3,0.5,0.3,0.7s-0.1,0.5-0.3,0.7
				c-0.4,0.4-1,0.4-1.4,0l-1.9-1.9c-0.3-0.3-0.8-0.5-1.2-0.5c-0.5,0-0.8,0.2-1.1,0.5c-0.4,0.4-0.5,0.7-0.5,1c0,0.5,0.2,0.9,0.5,1.3
				l0.1,0.1c0.4,0.4,0.4,1,0,1.4s-1,0.4-1.4,0c0,0,0,0-0.1-0.1l-0.8-0.8C41,43,40,43,39.4,43.6c-0.6,0.6-0.8,1.7-0.1,2.4l0,0
				c0.4,0.4,0.4,1,0,1.4s-1,0.4-1.4,0l-5.8-5.8C31.7,41.2,31.3,41.1,30.8,41.1z"/>
		</g>
	</g>
	<g>
		<g>
			<path class="st0" d="M39.8,56.6c-0.3,0-0.5-0.1-0.7-0.3l-3.6-3.6c-0.4-0.4-0.4-1,0-1.4s1-0.4,1.4,0l3.6,3.6c0.4,0.4,0.4,1,0,1.4
				C40.3,56.5,40.1,56.6,39.8,56.6z"/>
		</g>
	</g>
	<g>
		<g>
			<path class="st3" d="M33.3,49.2"/>
		</g>
	</g>
	<g>
		<g>
			<path class="st3" d="M39.9,53.9"/>
		</g>
	</g>
	<g>
		<g>
			<path class="st3" d="M48.3,41.4"/>
		</g>
	</g>
	<g>
		<g>
			<path class="st0" d="M43.7,52.8c-0.3,0-0.5-0.1-0.7-0.3l-5.2-5.2c-0.4-0.4-0.4-1,0-1.4s1-0.4,1.4,0l5.2,5.2c0.4,0.4,0.4,1,0,1.4
				C44.2,52.8,44,52.8,43.7,52.8z"/>
		</g>
	</g>
</g>
<g>
	<g>
		<path class="st0" d="M49.8,43.9c-0.3,0-0.5-0.1-0.7-0.3l-0.9-0.9c-0.4-0.4-0.4-1,0-1.4s1-0.4,1.4,0l0.9,0.9c0.4,0.4,0.4,1,0,1.4
			C50.3,43.8,50,43.9,49.8,43.9z"/>
	</g>
</g>
<g>
	<g>
		<path class="st0" d="M46.1,47.6c-0.3,0-0.5-0.1-0.7-0.3l-2.8-2.8c-0.4-0.4-0.4-1,0-1.4s1-0.4,1.4,0l2.8,2.8c0.4,0.4,0.4,1,0,1.4
			C46.6,47.5,46.3,47.6,46.1,47.6z"/>
	</g>
</g>
<g>
	<g>
		<g>
			<path class="st2" d="M25.2,41c-0.2,0-0.3,0-0.5-0.1L23,40.1c-0.5-0.3-0.7-0.9-0.4-1.3c0.3-0.5,0.9-0.7,1.3-0.4l1.7,0.8
				c0.5,0.3,0.7,0.9,0.4,1.3C25.9,40.8,25.5,41,25.2,41z"/>
		</g>
	</g>
	<g>
		<g>
			<path class="st2" d="M22.6,45.6c-0.5,0-0.9-0.4-1-0.8c-0.1-0.5,0.3-1.1,0.8-1.1l1.8-0.3c0.5-0.1,1.1,0.3,1.1,0.8
				c0.1,0.5-0.3,1.1-0.8,1.1l-1.8,0.3C22.7,45.6,22.7,45.6,22.6,45.6z"/>
		</g>
	</g>
	<g>
		<g>
			<path class="st2" d="M32.5,37.3c-0.1,0-0.1,0-0.2,0c-0.5-0.1-0.9-0.6-0.8-1.1l0.3-1.8c0.1-0.5,0.6-0.9,1.1-0.8
				c0.5,0.1,0.9,0.6,0.8,1.1l-0.3,1.8C33.4,36.9,33,37.3,32.5,37.3z"/>
		</g>
	</g>
	<g>
		<g>
			<path class="st2" d="M28.2,38c-0.4,0-0.7-0.2-0.9-0.5l-0.8-1.7c-0.3-0.5-0.1-1.1,0.4-1.3c0.5-0.3,1.1-0.1,1.3,0.4l0.8,1.7
				c0.3,0.5,0.1,1.1-0.4,1.3C28.5,37.9,28.4,38,28.2,38z"/>
		</g>
	</g>
</g>
</svg>
