<?xml version="1.0" encoding="utf-8"?>
<!-- Generator: Adobe Illustrator 27.0.1, SVG Export Plug-In . SVG Version: 6.00 Build 0)  -->
<svg version="1.1" id="Layer_1" xmlns="http://www.w3.org/2000/svg" xmlns:xlink="http://www.w3.org/1999/xlink" x="0px" y="0px"
	 width="70px" height="70px" viewBox="0 0 70 70" style="enable-background:new 0 0 70 70;" xml:space="preserve">
<style type="text/css">
	.st0{fill:#E92D2A;}
	.st1{fill:#FBDBDA;}
	.st2{fill:#FFFFFF;}
</style>
<g>
	<path class="st0" d="M62.2,50.9h-2V15.6c0-1.3-1.1-2.4-2.4-2.4H10.9c-1.3,0-2.4,1.1-2.4,2.4v35.3h-2V15.6c0-2.4,2-4.4,4.4-4.4h46.9
		c2.4,0,4.4,2,4.4,4.4C62.2,15.6,62.2,50.9,62.2,50.9z"/>
</g>
<g>
	<path class="st0" d="M62.3,58.8H6.4c-2.4,0-4.4-2-4.4-4.4v-4.5h27.9l0.2,0.7c0.3,1,1.2,1.7,2.3,1.7h3.9c1,0,2-0.7,2.3-1.7l0.2-0.7
		h27.9v4.5C66.6,56.8,64.7,58.8,62.3,58.8z M4,51.9v2.5c0,1.3,1.1,2.4,2.4,2.4h55.9c1.3,0,2.4-1.1,2.4-2.4v-2.5H40.2
		c-0.7,1.5-2.2,2.4-3.9,2.4h-3.9c-1.7,0-3.2-1-3.9-2.4H4z"/>
</g>
<g>
	<path class="st1" d="M56.6,46.2H12.2V17.9c0-0.5,0.4-1,1-1h42.4c0.5,0,1,0.4,1,1C56.6,17.9,56.6,46.2,56.6,46.2z"/>
</g>
<g>
	<path class="st2" d="M64.5,31.5l-14.3-3.8c-0.8-0.2-1.6,0.5-1.3,1.3l3.8,14.3c0.3,0.9,1.5,1.1,2,0.3l2.4-4.3l6.2,6.2
		c0.4,0.4,1.1,0.4,1.5,0l1.8-1.8c0.4-0.4,0.4-1.1,0-1.5L60.4,36l4.3-2.4C65.6,33.1,65.4,31.8,64.5,31.5z"/>
	<path class="st0" d="M64.1,46.8c-0.5,0-1.1-0.2-1.5-0.6l-5.3-5.3l-1.8,3.2c-0.4,0.7-1.3,1.2-2.1,1c-0.8-0.1-1.5-0.7-1.8-1.5
		l-3.8-14.3c-0.2-0.7,0-1.5,0.5-2s1.3-0.7,2-0.5l14.3,3.8c0.8,0.2,1.4,0.9,1.5,1.8c0.1,0.9-0.3,1.7-1,2.1l-3.2,1.8l5.3,5.3
		c0.8,0.8,0.8,2.1,0,3l-1.8,1.8C65.2,46.6,64.7,46.8,64.1,46.8z M56.9,37.6l7.2,7.2h0.1L66,43v-0.1l-7.2-7.2l5.4-3.1
		c0,0,0.1,0,0-0.1c0-0.1,0-0.1-0.1-0.1l-14.3-3.8l-0.1,0.1L53.5,43c0,0,0,0.1,0.1,0.1s0.1,0,0.1,0L56.9,37.6z"/>
</g>
<g>
	<g>
		<path class="st2" d="M44.6,27.4c-0.2,0-0.3,0-0.5-0.1l-1.7-0.8c-0.5-0.3-0.7-0.9-0.4-1.3c0.2-0.5,0.9-0.7,1.3-0.4l1.7,0.8
			c0.5,0.3,0.7,0.9,0.4,1.3C45.3,27.2,44.9,27.4,44.6,27.4z"/>
	</g>
	<g>
		<path class="st2" d="M42,32c-0.5,0-0.9-0.4-1-0.8c-0.1-0.5,0.3-1.1,0.8-1.1l1.8-0.3c0.5-0.1,1.1,0.3,1.1,0.8
			c0.1,0.5-0.3,1.1-0.8,1.1L42.2,32C42.1,32,42.1,32,42,32z"/>
	</g>
	<g>
		<path class="st2" d="M51.9,23.7c-0.1,0-0.1,0-0.2,0c-0.5-0.1-0.9-0.6-0.8-1.1l0.3-1.8c0.1-0.5,0.6-0.9,1.1-0.8s0.9,0.6,0.8,1.1
			l-0.3,1.8C52.8,23.4,52.4,23.7,51.9,23.7z"/>
	</g>
	<g>
		<path class="st2" d="M47.6,24.4c-0.4,0-0.7-0.2-0.9-0.5l-0.8-1.7c-0.2-0.5-0.1-1.1,0.4-1.3c0.5-0.3,1.1-0.1,1.3,0.4l0.8,1.7
			c0.3,0.5,0.1,1.1-0.4,1.3C47.9,24.4,47.8,24.4,47.6,24.4z"/>
	</g>
</g>
</svg>
